<svg width="7" height="12" viewBox="0 0 7 12" fill="none" xmlns="http://www.w3.org/2000/svg">
<path d="M0.207518 6.81727L6.81103 11.975C6.82829 11.9886 6.84903 11.997 6.87086 11.9993C6.8927 12.0017 6.91475 11.9978 6.93449 11.9882C6.95422 11.9785 6.97083 11.9635 6.98242 11.9449C6.99401 11.9262 7.0001 11.9047 7 11.8827V10.7504C7 10.6786 6.96631 10.6097 6.91064 10.5658L1.63721 6.44813L6.91064 2.33045C6.96777 2.28651 7 2.21766 7 2.14588V1.01356C7 0.915414 6.88721 0.861215 6.81103 0.921273L0.207518 6.07899C0.151392 6.12277 0.105989 6.17877 0.0747604 6.24274C0.0435314 6.3067 0.0272994 6.37695 0.0272994 6.44813C0.0272994 6.51931 0.0435314 6.58955 0.0747604 6.65352C0.105989 6.71749 0.151392 6.77349 0.207518 6.81727Z" fill="white"/>
</svg>
