<svg width="17" height="17" viewBox="0 0 17 17" fill="none" xmlns="http://www.w3.org/2000/svg">
<path d="M11.4688 0.1875C10.6343 0.187309 9.81139 0.382586 9.06599 0.757684C8.32059 1.13278 7.67341 1.67727 7.17633 2.34751C6.67925 3.01776 6.34607 3.79512 6.20351 4.61731C6.06095 5.4395 6.11296 6.28366 6.35537 7.08213L0.1875 13.25V16.8125H3.75L9.91788 10.6446C10.6529 10.8677 11.4273 10.9298 12.1885 10.8265C12.9496 10.7232 13.6796 10.457 14.3285 10.0462C14.9775 9.63526 15.5303 9.08928 15.9492 8.44544C16.3681 7.80159 16.6432 7.075 16.7559 6.3152C16.8686 5.55539 16.8162 4.78022 16.6022 4.04251C16.3882 3.3048 16.0177 2.62189 15.5159 2.04033C15.0141 1.45877 14.3928 0.992223 13.6944 0.672481C12.996 0.35274 12.2369 0.187322 11.4688 0.1875ZM11.4688 9.6875C11.06 9.68728 10.6534 9.62686 10.2622 9.50819L9.58122 9.30156L9.07831 9.80447L7.18959 11.6932L6.37081 10.875L5.53125 11.7146L6.35003 12.5333L5.40834 13.475L4.58956 12.6562L3.75 13.4958L4.56878 14.3146L3.25837 15.625H1.375V13.7416L7.19494 7.92169L7.69844 7.41878L7.49181 6.73775C7.23803 5.90115 7.25452 5.00583 7.53893 4.17914C7.82334 3.35245 8.36118 2.6365 9.07596 2.13312C9.79074 1.62973 10.646 1.36456 11.5202 1.37531C12.3944 1.38607 13.2429 1.67221 13.9451 2.19302C14.6473 2.71384 15.1674 3.44281 15.4313 4.27624C15.6953 5.10968 15.6898 6.00513 15.4155 6.83523C15.1412 7.66534 14.6121 8.38781 13.9036 8.89989C13.195 9.41197 12.343 9.68757 11.4688 9.6875Z" fill="#3074BD"/>
<path d="M11.4688 0.1875C10.6343 0.187309 9.81139 0.382586 9.06599 0.757684C8.32059 1.13278 7.67341 1.67727 7.17633 2.34751C6.67925 3.01776 6.34607 3.79512 6.20351 4.61731C6.06095 5.4395 6.11296 6.28366 6.35537 7.08213L0.1875 13.25V16.8125H3.75L9.91788 10.6446C10.6529 10.8677 11.4273 10.9298 12.1885 10.8265C12.9496 10.7232 13.6796 10.457 14.3285 10.0462C14.9775 9.63526 15.5303 9.08928 15.9492 8.44544C16.3681 7.80159 16.6432 7.075 16.7559 6.3152C16.8686 5.55539 16.8162 4.78022 16.6022 4.04251C16.3882 3.3048 16.0177 2.62189 15.5159 2.04033C15.0141 1.45877 14.3928 0.992223 13.6944 0.672481C12.996 0.35274 12.2369 0.187322 11.4688 0.1875ZM11.4688 9.6875C11.06 9.68728 10.6534 9.62686 10.2622 9.50819L9.58122 9.30156L9.07831 9.80447L7.18959 11.6932L6.37081 10.875L5.53125 11.7146L6.35003 12.5333L5.40834 13.475L4.58956 12.6562L3.75 13.4958L4.56878 14.3146L3.25837 15.625H1.375V13.7416L7.19494 7.92169L7.69844 7.41878L7.49181 6.73775C7.23803 5.90115 7.25452 5.00583 7.53893 4.17914C7.82334 3.35245 8.36118 2.6365 9.07596 2.13312C9.79074 1.62973 10.646 1.36456 11.5202 1.37531C12.3944 1.38607 13.2429 1.67221 13.9451 2.19302C14.6473 2.71384 15.1674 3.44281 15.4313 4.27624C15.6953 5.10968 15.6898 6.00513 15.4155 6.83523C15.1412 7.66534 14.6121 8.38781 13.9036 8.89989C13.195 9.41197 12.343 9.68757 11.4688 9.6875Z" fill="#3074BD"/>
<path d="M12.0625 6.125C12.7183 6.125 13.25 5.59334 13.25 4.9375C13.25 4.28166 12.7183 3.75 12.0625 3.75C11.4067 3.75 10.875 4.28166 10.875 4.9375C10.875 5.59334 11.4067 6.125 12.0625 6.125Z" fill="#3074BD"/>
</svg>
