<svg width="15" height="15" viewBox="0 0 15 15" fill="none" xmlns="http://www.w3.org/2000/svg">
<path d="M6.56022 3.75649L4.36128 1.21839C4.10778 0.925909 3.64304 0.927209 3.34859 1.22229L1.5403 3.03373C1.0021 3.57255 0.848052 4.37265 1.1594 5.01416C3.01944 8.86516 6.1254 11.9753 9.974 13.8406C10.6149 14.152 11.4144 13.9979 11.9526 13.4591L13.7778 11.6308C14.0735 11.335 14.0742 10.8677 13.7791 10.6142L11.2311 8.42711C10.9646 8.19832 10.5505 8.22822 10.2834 8.496L9.39681 9.38385C9.35142 9.43142 9.29167 9.46278 9.22673 9.47311C9.1618 9.48344 9.09527 9.47218 9.03736 9.44105C7.58815 8.60656 6.38602 7.40292 5.55338 5.95271C5.52219 5.8947 5.5109 5.82806 5.52124 5.76302C5.53157 5.69798 5.56295 5.63812 5.61058 5.59263L6.49457 4.70803C6.76237 4.43895 6.79162 4.02297 6.56022 3.75584V3.75649Z" stroke="black" stroke-width="1.25" stroke-linecap="round" stroke-linejoin="round"/>
</svg>
