<svg width="14" height="14" viewBox="0 0 14 14" fill="none" xmlns="http://www.w3.org/2000/svg">
<path d="M12.8333 1.31279H10.9375V0.437792C10.9376 0.32176 10.8916 0.210449 10.8096 0.128347C10.7276 0.0462453 10.6163 7.74587e-05 10.5003 1.03882e-07C10.3843 -7.72509e-05 10.2729 0.0459422 10.1908 0.127935C10.1087 0.209927 10.0626 0.321176 10.0625 0.437208V1.31279H7.4375V0.437792C7.43754 0.380338 7.42626 0.32344 7.40431 0.270346C7.38236 0.217251 7.35016 0.169 7.30957 0.128347C7.26897 0.0876944 7.22076 0.0554362 7.16769 0.0334144C7.11463 0.0113926 7.05774 3.83996e-05 7.00029 9.73625e-08C6.88426 -7.72574e-05 6.77295 0.0459422 6.69085 0.127935C6.60874 0.209927 6.56258 0.321176 6.5625 0.437208V1.31279H3.9375V0.437792C3.93754 0.380338 3.92626 0.32344 3.90431 0.270346C3.88236 0.217251 3.85016 0.169 3.80957 0.128347C3.76897 0.0876944 3.72076 0.0554362 3.66769 0.0334144C3.61463 0.0113926 3.55774 3.83996e-05 3.50029 9.73625e-08C3.38426 -7.72574e-05 3.27295 0.0459422 3.19085 0.127935C3.10875 0.209927 3.06258 0.321176 3.0625 0.437208V1.31279H1.16667C0.857348 1.31279 0.560691 1.43563 0.341915 1.65429C0.123139 1.87296 0.000154659 2.16956 0 2.47888V12.833C0 13.1425 0.122916 13.4392 0.341709 13.658C0.560501 13.8768 0.857247 13.9997 1.16667 13.9997H12.8333C13.1428 13.9997 13.4395 13.8768 13.6583 13.658C13.8771 13.4392 14 13.1425 14 12.833V2.47888C13.9998 2.16956 13.8769 1.87296 13.6581 1.65429C13.4393 1.43563 13.1427 1.31279 12.8333 1.31279ZM13.125 12.8336C13.125 12.9109 13.0944 12.985 13.0398 13.0397C12.9852 13.0943 12.9112 13.1251 12.8339 13.1253H1.16667C1.08931 13.1253 1.01513 13.0946 0.960427 13.0399C0.905729 12.9852 0.875 12.911 0.875 12.8336V2.47946C0.875154 2.4022 0.905952 2.32817 0.960633 2.2736C1.01531 2.21902 1.08941 2.18837 1.16667 2.18837H3.0625V3.06337C3.06242 3.17941 3.10844 3.29072 3.19043 3.37282C3.27243 3.45492 3.38368 3.50109 3.49971 3.50117C3.61574 3.50124 3.72705 3.45522 3.80915 3.37323C3.89125 3.29124 3.93742 3.17999 3.9375 3.06396V2.18837H6.5625V3.06337C6.56242 3.17941 6.60844 3.29072 6.69043 3.37282C6.77243 3.45492 6.88368 3.50109 6.99971 3.50117C7.11574 3.50124 7.22705 3.45522 7.30915 3.37323C7.39125 3.29124 7.43742 3.17999 7.4375 3.06396V2.18837H10.0625V3.06337C10.0624 3.17941 10.1084 3.29072 10.1904 3.37282C10.2724 3.45492 10.3837 3.50109 10.4997 3.50117C10.6157 3.50124 10.7271 3.45522 10.8092 3.37323C10.8913 3.29124 10.9374 3.17999 10.9375 3.06396V2.18837H12.8333C12.9105 2.18853 12.9844 2.21925 13.039 2.2738C13.0935 2.32836 13.1243 2.40231 13.1244 2.47946L13.125 12.8336Z" fill="#A9A9A9"/>
<path d="M3 5.25H4.75V6.5625H3V5.25ZM3 7.4375H4.75V8.75H3V7.4375ZM3 9.625H4.75V10.9375H3V9.625ZM6.0625 9.625H7.8125V10.9375H6.0625V9.625ZM6.0625 7.4375H7.8125V8.75H6.0625V7.4375ZM6.0625 5.25H7.8125V6.5625H6.0625V5.25ZM9.125 9.625H10.875V10.9375H9.125V9.625ZM9.125 7.4375H10.875V8.75H9.125V7.4375ZM9.125 5.25H10.875V6.5625H9.125V5.25Z" fill="#A9A9A9"/>
</svg>
