<svg width="12" height="13" viewBox="0 0 12 13" fill="none" xmlns="http://www.w3.org/2000/svg">
<path d="M4.6875 2.03125V2.1875H7.1875V2.03125C7.1875 1.69973 7.0558 1.38179 6.82138 1.14737C6.58696 0.912946 6.26902 0.78125 5.9375 0.78125C5.60598 0.78125 5.28804 0.912946 5.05362 1.14737C4.8192 1.38179 4.6875 1.69973 4.6875 2.03125ZM3.90625 2.1875V2.03125C3.90625 1.49253 4.12026 0.975873 4.50119 0.594939C4.88212 0.214006 5.39878 0 5.9375 0C6.47622 0 6.99288 0.214006 7.37381 0.594939C7.75474 0.975873 7.96875 1.49253 7.96875 2.03125V2.1875H11.4844C11.588 2.1875 11.6873 2.22865 11.7606 2.30191C11.8338 2.37517 11.875 2.47452 11.875 2.57812C11.875 2.68173 11.8338 2.78108 11.7606 2.85434C11.6873 2.9276 11.588 2.96875 11.4844 2.96875H10.5728L9.94781 10.4237C9.90033 10.9899 9.64188 11.5175 9.2237 11.9021C8.80552 12.2866 8.25812 12.5 7.69 12.5H4.185C3.61694 12.5 3.06962 12.2865 2.6515 11.902C2.23338 11.5174 1.97498 10.9898 1.9275 10.4237L1.3025 2.96875H0.390625C0.287025 2.96875 0.187668 2.9276 0.114411 2.85434C0.041155 2.78108 0 2.68173 0 2.57812C0 2.47452 0.041155 2.37517 0.114411 2.30191C0.187668 2.22865 0.287025 2.1875 0.390625 2.1875H3.90625ZM2.70594 10.3584C2.73704 10.7293 2.90634 11.075 3.18028 11.3269C3.45422 11.5789 3.81282 11.7187 4.185 11.7188H7.69C8.06224 11.7188 8.42091 11.579 8.69491 11.327C8.96892 11.0751 9.13826 10.7294 9.16937 10.3584L9.78875 2.96875H2.08625L2.70594 10.3584ZM5.15625 5.07812C5.15625 5.02683 5.14615 4.97603 5.12652 4.92864C5.10688 4.88125 5.07811 4.83818 5.04184 4.80191C5.00557 4.76564 4.9625 4.73687 4.91511 4.71723C4.86772 4.6976 4.81692 4.6875 4.76562 4.6875C4.71433 4.6875 4.66353 4.6976 4.61614 4.71723C4.56875 4.73687 4.52568 4.76564 4.48941 4.80191C4.45314 4.83818 4.42437 4.88125 4.40473 4.92864C4.3851 4.97603 4.375 5.02683 4.375 5.07812V9.60938C4.375 9.66067 4.3851 9.71147 4.40473 9.75886C4.42437 9.80625 4.45314 9.84932 4.48941 9.88559C4.52568 9.92186 4.56875 9.95063 4.61614 9.97027C4.66353 9.9899 4.71433 10 4.76562 10C4.81692 10 4.86772 9.9899 4.91511 9.97027C4.9625 9.95063 5.00557 9.92186 5.04184 9.88559C5.07811 9.84932 5.10688 9.80625 5.12652 9.75886C5.14615 9.71147 5.15625 9.66067 5.15625 9.60938V5.07812ZM7.10938 4.6875C7.325 4.6875 7.5 4.8625 7.5 5.07812V9.60938C7.5 9.71298 7.45885 9.81233 7.38559 9.88559C7.31233 9.95885 7.21298 10 7.10938 10C7.00577 10 6.90642 9.95885 6.83316 9.88559C6.7599 9.81233 6.71875 9.71298 6.71875 9.60938V5.07812C6.71875 4.8625 6.89375 4.6875 7.10938 4.6875Z" fill="#3074BD"/>
</svg>
