<svg width="13" height="11" viewBox="0 0 13 11" fill="none" xmlns="http://www.w3.org/2000/svg">
<path d="M12.5357 0H0.464286C0.207478 0 0 0.223437 0 0.5V10.5C0 10.7766 0.207478 11 0.464286 11H12.5357C12.7925 11 13 10.7766 13 10.5V0.5C13 0.223437 12.7925 0 12.5357 0ZM11.9554 1.73125V9.875H1.04464V1.73125L0.644196 1.39531L1.2144 0.60625L1.83538 1.12656H11.1661L11.7871 0.60625L12.3573 1.39531L11.9554 1.73125ZM11.1661 1.125L6.5 5.03125L1.83393 1.125L1.21295 0.604687L0.642746 1.39375L1.04319 1.72969L5.99944 5.87969C6.14198 5.99894 6.31733 6.06367 6.49782 6.06367C6.67832 6.06367 6.85367 5.99894 6.99621 5.87969L11.9554 1.73125L12.3558 1.39531L11.7856 0.60625L11.1661 1.125Z" fill="black"/>
</svg>
