<svg width="17" height="17" viewBox="0 0 17 17" fill="none" xmlns="http://www.w3.org/2000/svg">
<path d="M15.9942 3.92906L13.2222 1.14295C13.0391 0.960706 12.7912 0.858398 12.5328 0.858398C12.2744 0.858398 12.0265 0.960706 11.8434 1.14295L2.01642 10.9557L1.11919 14.828C1.08824 14.9695 1.0893 15.1162 1.1223 15.2573C1.15529 15.3984 1.21939 15.5303 1.30991 15.6434C1.40042 15.7566 1.51507 15.8481 1.64547 15.9112C1.77588 15.9744 1.91875 16.0076 2.06364 16.0085C2.13115 16.0153 2.19918 16.0153 2.26669 16.0085L6.18142 15.1113L15.9942 5.30795C16.1764 5.12478 16.2787 4.8769 16.2787 4.61851C16.2787 4.36012 16.1764 4.11224 15.9942 3.92906ZM5.70919 14.2613L2.04003 15.031L2.87586 11.4327L10.2284 4.10851L13.0617 6.94184L5.70919 14.2613ZM13.6945 6.25712L10.8611 3.42379L12.5045 1.7899L15.2906 4.62323L13.6945 6.25712Z" fill="#3074BD"/>
</svg>
