<svg width="9" height="9" viewBox="0 0 9 9" fill="none" xmlns="http://www.w3.org/2000/svg">
<path d="M0.49581 9C0.427293 8.99988 0.359551 8.9855 0.296891 8.95777C0.234231 8.93005 0.178024 8.88959 0.131844 8.83896C0.0848294 8.78876 0.0489538 8.72919 0.0265703 8.66415C0.00418676 8.5991 -0.00419905 8.53007 0.0019626 8.46156L0.122955 7.13077L5.71232 1.54186L7.45905 3.28858L1.87117 8.87699L0.54075 8.99802C0.52581 8.9994 0.510813 9.00006 0.49581 9ZM7.80771 2.93933L6.06147 1.19261L7.10892 0.144878C7.15478 0.0989497 7.20925 0.062514 7.2692 0.0376547C7.32915 0.0127954 7.39341 0 7.45831 0C7.52321 0 7.58748 0.0127954 7.64743 0.0376547C7.70738 0.062514 7.76185 0.0989497 7.80771 0.144878L8.85516 1.19261C8.90108 1.23849 8.9375 1.29297 8.96236 1.35294C8.98721 1.41291 9 1.47719 9 1.54211C9 1.60702 8.98721 1.6713 8.96236 1.73127C8.9375 1.79124 8.90108 1.84572 8.85516 1.8916L7.8082 2.93884L7.80771 2.93933Z" fill="#3074BD"/>
</svg>
