<svg width="34" height="32" viewBox="0 0 34 32" fill="none" xmlns="http://www.w3.org/2000/svg">
<path d="M29.4444 31.2082V3.94891C29.4444 3.04521 29.0698 2.17852 28.403 1.53951C27.7363 0.900497 26.8319 0.541504 25.8889 0.541504H8.11111C7.16812 0.541504 6.26375 0.900497 5.59695 1.53951C4.93016 2.17852 4.55556 3.04521 4.55556 3.94891V31.2082M29.4444 31.2082H4.55556M29.4444 31.2082H33M29.4444 31.2082H20.5556M4.55556 31.2082H1M4.55556 31.2082H13.4444M20.5556 31.2082V22.6897C20.5556 22.2378 20.3683 21.8045 20.0349 21.485C19.7015 21.1654 19.2493 20.9859 18.7778 20.9859H15.2222C14.7507 20.9859 14.2985 21.1654 13.9651 21.485C13.6317 21.8045 13.4444 22.2378 13.4444 22.6897V31.2082M20.5556 31.2082H13.4444M11.6667 7.35632H13.4444M11.6667 14.1711H13.4444M20.5556 7.35632H22.3333M20.5556 14.1711H22.3333" stroke="#3074BD" stroke-linecap="round" stroke-linejoin="round"/>
</svg>
