<svg width="34" height="34" viewBox="0 0 34 34" fill="none" xmlns="http://www.w3.org/2000/svg">
<path d="M33.9575 8.20398C33.8974 7.03834 33.3115 5.70666 31.0261 5.49359L25.6439 5.02268C25.2778 3.63717 24.3655 2.59903 23.537 2.02896C23.4258 1.71377 23.226 1.43739 22.9615 1.23303C22.697 1.02867 22.3792 0.905011 22.0461 0.876916L11.5934 0.00594132C11.3175 -0.0169146 11.0402 0.0263814 10.7844 0.132232C10.5287 0.238083 10.3019 0.403433 10.1229 0.614547L9.73243 0.797015C8.8847 1.19312 7.89189 2.08109 7.72359 4.05084C5.92272 4.26051 3.73935 4.51438 2.51365 4.65605C1.44038 4.78015 0.796074 6.15999 0.651574 6.49093L0.64704 6.49036V6.5C-0.185962 8.42045 -0.244895 11.9599 0.64704 13.9818V24.812C0.64704 26.5403 1.69311 28.1956 3.00325 28.5129L25.2586 33.9184C25.4835 33.9734 25.7028 34 25.9142 34C26.6027 34 27.2085 33.7167 27.6607 33.2344C27.6505 33.2452 27.6442 33.2582 27.634 33.2684V33.2741C28.038 32.9269 28.4622 32.6041 28.9045 32.3074V32.3136C28.9045 32.3136 33.9031 32.4196 33.9915 30.4203L34 30.4198V30.3688C34 30.3688 33.9824 8.35471 33.9575 8.20398ZM21.9691 2.8036C22.028 2.50156 22.2705 2.17516 22.5578 2.17516C22.6196 2.17516 22.6842 2.18989 22.7494 2.22049C23.7529 2.68913 25.2472 4.15511 25.2591 6.23309C25.2223 6.27843 25.0087 6.364 24.6619 6.364C24.3151 6.364 24.102 6.27843 24.0765 6.27276C24.0765 4.57898 22.857 3.63207 22.2116 3.36744C21.926 3.2507 21.9368 2.96397 21.9691 2.8036ZM10.2668 3.02687C10.5499 3.293 10.9144 3.45591 11.3015 3.48927L21.756 4.35911C22.0348 4.38235 22.3006 4.33418 22.5431 4.23614C22.7227 4.38518 22.8984 4.57275 23.0503 4.79432L10.6572 3.70914L9.8741 3.80037C9.95683 3.5006 10.0866 3.23994 10.2668 3.02687ZM9.41906 1.65042C9.39923 2.05559 9.50406 2.45566 9.7177 2.8036C9.38223 3.26714 9.2077 3.86157 9.19636 4.57388C9.12666 4.60448 8.96743 4.64528 8.7283 4.64528C8.49143 4.64528 8.33276 4.60505 8.26249 4.57445C8.27609 3.22804 8.66426 2.24826 9.41906 1.65042ZM1.49081 13.0105C0.792674 10.741 1.22108 7.56534 1.87784 6.56233L3.08655 6.687L26.8492 9.26139C26.5296 10.7149 26.5103 12.9079 26.7954 15.8195C26.7767 17.0191 26.0876 17.885 25.1441 17.885C25.0614 17.885 16.418 16.5408 16.418 16.5408V13.9325L10.4209 13.1295L9.80553 15.5072C9.80553 15.5072 3.95525 14.715 2.45981 14.3722C2.06371 14.2815 1.69311 13.669 1.49081 13.0105ZM14.9078 17.8289L9.94493 17.0486L10.8442 13.5721L15.8077 14.2368L14.9078 17.8289ZM15.789 21.1513L10.8567 20.2622L9.9625 17.7008L14.8953 18.476L15.789 21.1513ZM27.3388 30.9808C27.3388 32.0914 26.7529 32.8667 25.9142 32.8667C25.7895 32.8667 3.27015 27.4124 3.27015 27.4124C2.56521 27.2413 1.77981 26.1318 1.77981 24.8126V15.9832C1.99854 16.5386 2.85705 16.8593 3.09788 16.899L9.5579 17.9689L10.4198 20.4418L16.4163 21.523V19.1045L25.3532 20.5841C26.0638 20.7014 26.7619 20.52 27.3484 20.1358L27.3388 30.9808ZM31.31 7.07687L28.4954 8.29918L2.17081 5.44769C2.33684 5.32642 2.49495 5.23575 2.59751 5.21705L7.69639 4.62091L7.69583 4.64698C7.69583 5.00058 8.08229 5.21195 8.7283 5.21195C9.376 5.21195 9.7619 5.00058 9.7619 4.64698C9.7619 4.55235 9.77323 4.46678 9.77946 4.37668L10.6357 4.27638L23.3534 5.38989C23.4481 5.65452 23.5076 5.94749 23.5076 6.27276C23.5076 6.67227 23.9603 6.93067 24.6607 6.93067C25.3606 6.93067 25.8128 6.67227 25.8128 6.27276C25.8128 6.04156 25.7935 5.81829 25.7629 5.60126L30.9734 6.05743C31.7826 6.13279 32.3788 6.3657 32.7811 6.75217C32.4179 6.69833 31.9424 6.7669 31.31 7.07687Z" fill="#3074BD"/>
</svg>
