<svg width="7" height="12" viewBox="0 0 7 12" fill="none" xmlns="http://www.w3.org/2000/svg">
<path d="M6.79248 5.18273L0.188966 0.0250166C0.171711 0.011432 0.150974 0.00298969 0.129137 0.000659262C0.1073 -0.00167116 0.0852482 0.00220479 0.0655147 0.0118421C0.0457812 0.0214793 0.0291664 0.0364871 0.0175778 0.0551416C0.00598927 0.0737962 -0.00010285 0.095341 1.31371e-06 0.117302V1.24963C1.31371e-06 1.3214 0.0336928 1.39025 0.0893569 1.4342L5.36279 5.55187L0.0893569 9.66955C0.032228 9.71349 1.31371e-06 9.78234 1.31371e-06 9.85412V10.9864C1.31371e-06 11.0846 0.112794 11.1388 0.188966 11.0787L6.79248 5.92101C6.84861 5.87723 6.89401 5.82123 6.92524 5.75726C6.95647 5.6933 6.9727 5.62305 6.9727 5.55187C6.9727 5.48069 6.95647 5.41045 6.92524 5.34648C6.89401 5.28251 6.84861 5.22651 6.79248 5.18273Z" fill="#A9A9A9"/>
</svg>
