<svg width="15" height="12" viewBox="0 0 15 12" fill="none" xmlns="http://www.w3.org/2000/svg">
<path d="M14.0625 11.25C14.0625 11.25 15 11.25 15 10.3125C15 9.375 14.0625 6.5625 10.3125 6.5625C6.5625 6.5625 5.625 9.375 5.625 10.3125C5.625 11.25 6.5625 11.25 6.5625 11.25H14.0625ZM6.58312 10.3125C6.5762 10.3115 6.56932 10.3103 6.5625 10.3088C6.56344 10.0613 6.71906 9.34313 7.275 8.69625C7.7925 8.08969 8.70187 7.5 10.3125 7.5C11.9222 7.5 12.8316 8.09062 13.35 8.69625C13.9059 9.34313 14.0606 10.0622 14.0625 10.3088L14.055 10.3106C14.0506 10.3114 14.0463 10.312 14.0419 10.3125H6.58312ZM10.3125 4.6875C10.8098 4.6875 11.2867 4.48996 11.6383 4.13833C11.99 3.78669 12.1875 3.30978 12.1875 2.8125C12.1875 2.31522 11.99 1.83831 11.6383 1.48667C11.2867 1.13504 10.8098 0.9375 10.3125 0.9375C9.81522 0.9375 9.33831 1.13504 8.98668 1.48667C8.63504 1.83831 8.4375 2.31522 8.4375 2.8125C8.4375 3.30978 8.63504 3.78669 8.98668 4.13833C9.33831 4.48996 9.81522 4.6875 10.3125 4.6875ZM13.125 2.8125C13.125 3.18184 13.0523 3.54757 12.9109 3.8888C12.7696 4.23003 12.5624 4.54007 12.3012 4.80124C12.0401 5.0624 11.73 5.26957 11.3888 5.41091C11.0476 5.55225 10.6818 5.625 10.3125 5.625C9.94316 5.625 9.57743 5.55225 9.2362 5.41091C8.89497 5.26957 8.58493 5.0624 8.32376 4.80124C8.0626 4.54007 7.85543 4.23003 7.71409 3.8888C7.57275 3.54757 7.5 3.18184 7.5 2.8125C7.5 2.06658 7.79632 1.35121 8.32376 0.823762C8.85121 0.296316 9.56658 0 10.3125 0C11.0584 0 11.7738 0.296316 12.3012 0.823762C12.8287 1.35121 13.125 2.06658 13.125 2.8125ZM6.5025 6.825C6.12748 6.70691 5.74091 6.62928 5.34937 6.59344C5.12937 6.57252 4.90849 6.56219 4.6875 6.5625C0.9375 6.5625 0 9.375 0 10.3125C0 10.9378 0.312187 11.25 0.9375 11.25H4.89C4.75102 10.9573 4.68171 10.6364 4.6875 10.3125C4.6875 9.36563 5.04094 8.39812 5.70938 7.59C5.93719 7.31437 6.2025 7.05656 6.5025 6.825ZM4.6125 7.5C4.05764 8.33369 3.75791 9.31108 3.75 10.3125H0.9375C0.9375 10.0688 1.09125 9.34688 1.65 8.69625C2.16094 8.1 3.04875 7.51875 4.6125 7.50094V7.5ZM1.40625 3.28125C1.40625 2.53533 1.70257 1.81996 2.23001 1.29251C2.75746 0.765066 3.47283 0.46875 4.21875 0.46875C4.96467 0.46875 5.68004 0.765066 6.20749 1.29251C6.73493 1.81996 7.03125 2.53533 7.03125 3.28125C7.03125 4.02717 6.73493 4.74254 6.20749 5.26999C5.68004 5.79743 4.96467 6.09375 4.21875 6.09375C3.47283 6.09375 2.75746 5.79743 2.23001 5.26999C1.70257 4.74254 1.40625 4.02717 1.40625 3.28125ZM4.21875 1.40625C3.72147 1.40625 3.24456 1.60379 2.89292 1.95542C2.54129 2.30706 2.34375 2.78397 2.34375 3.28125C2.34375 3.77853 2.54129 4.25544 2.89292 4.60708C3.24456 4.95871 3.72147 5.15625 4.21875 5.15625C4.71603 5.15625 5.19294 4.95871 5.54458 4.60708C5.89621 4.25544 6.09375 3.77853 6.09375 3.28125C6.09375 2.78397 5.89621 2.30706 5.54458 1.95542C5.19294 1.60379 4.71603 1.40625 4.21875 1.40625Z" fill="black"/>
</svg>
