<svg width="16" height="20" viewBox="0 0 16 20" fill="none" xmlns="http://www.w3.org/2000/svg">
<path fill-rule="evenodd" clip-rule="evenodd" d="M11.0835 2.7896C11.2023 2.35485 11.4415 1.9606 11.7748 1.65025C12.108 1.3399 12.5224 1.12549 12.9722 1.03063C13.4221 0.935772 13.8899 0.964138 14.3244 1.11261C14.7588 1.26108 15.1429 1.52389 15.4344 1.87211C15.7258 2.22034 15.9134 2.64047 15.9764 3.08624C16.0395 3.53202 15.9755 3.98615 15.7915 4.39865C15.6076 4.81115 15.3108 5.16601 14.9338 5.42416C14.5569 5.68231 14.1144 5.83374 13.6551 5.86178C13.8829 6.49136 13.9989 7.1544 13.9981 7.82222V13.6889H14.998C15.5479 13.6889 15.9978 14.1289 15.9978 14.6667C15.9978 15.2044 15.5479 15.6444 14.998 15.6444H10.9985V16.6222C10.9985 17.4002 10.6825 18.1463 10.1199 18.6964C9.55742 19.2465 8.79446 19.5556 7.99892 19.5556C7.20337 19.5556 6.44041 19.2465 5.87788 18.6964C5.31535 18.1463 4.99932 17.4002 4.99932 16.6222V15.6444H0.999864C0.449939 15.6444 0 15.2044 0 14.6667C0 14.1289 0.449939 13.6889 0.999864 13.6889H1.99973V7.82222C1.99991 6.43576 2.50205 5.09414 3.41714 4.03514C4.33223 2.97614 5.60117 2.26817 6.99905 2.03671V0.977778C6.99905 0.718455 7.10439 0.469753 7.2919 0.286384C7.47942 0.103016 7.73373 0 7.99892 0C8.2641 0 8.51841 0.103016 8.70593 0.286384C8.89344 0.469753 8.99878 0.718455 8.99878 0.977778V2.03671C9.73581 2.15764 10.443 2.41305 11.0835 2.7896ZM7.99892 17.6C8.2641 17.6 8.51841 17.497 8.70593 17.3136C8.89344 17.1302 8.99878 16.8815 8.99878 16.6222V15.6444H6.99905V16.6222C6.99905 16.8815 7.10439 17.1302 7.2919 17.3136C7.47942 17.497 7.73373 17.6 7.99892 17.6ZM3.99946 13.6889H11.9984V7.82222C11.9984 6.78493 11.577 5.79012 10.827 5.05665C10.0769 4.32317 9.05964 3.91111 7.99892 3.91111C6.93819 3.91111 5.92092 4.32317 5.17087 5.05665C4.42083 5.79012 3.99946 6.78493 3.99946 7.82222V13.6889Z" fill="#3074BD"/>
</svg>
