<svg width="227" height="227" viewBox="0 0 227 227" fill="none" xmlns="http://www.w3.org/2000/svg">
<circle cx="113.5" cy="113.5" r="113.5" fill="#3074BD"/>
<path d="M62.12 98.4V103.64H58.24V128H52.04V122.2L49.8 121.08L42.16 128.44H34.8V127.88L45.08 118.72L40.52 116.4L34.92 120.8H27.76V120.08L35.76 113.84C34.1067 112.773 32.8533 111.6 32 110.32C31.1467 109.04 30.72 107.587 30.72 105.96C30.72 104.44 31.0667 103.08 31.76 101.88C32.48 100.68 33.4933 99.7467 34.8 99.08C36.1333 98.3867 37.6933 98.04 39.48 98.04C41.2933 98.04 42.8667 98.3733 44.2 99.04C45.56 99.68 46.6 100.587 47.32 101.76C48.04 102.907 48.4 104.213 48.4 105.68C48.4 107.147 48.12 108.44 47.56 109.56C47 110.653 46.0533 111.8 44.72 113L52.04 116.68V98.4H62.12ZM36.56 106.24C36.56 107.947 37.56 109.333 39.56 110.4L39.96 110.6C40.8133 109.96 41.48 109.307 41.96 108.64C42.4667 107.973 42.72 107.2 42.72 106.32C42.72 105.493 42.44 104.787 41.88 104.2C41.3467 103.587 40.6133 103.267 39.68 103.24C38.7733 103.24 38.0267 103.533 37.44 104.12C36.8533 104.707 36.56 105.413 36.56 106.24ZM95.8531 103.64H91.9331V128H85.6131V114.56H80.4531V116.44C80.4531 119.293 79.7065 121.533 78.2131 123.16C76.7465 124.76 74.6131 125.56 71.8131 125.56C70.0798 125.56 68.5465 125.227 67.2131 124.56C65.8798 123.893 64.8531 122.947 64.1331 121.72C63.4131 120.493 63.0531 119.067 63.0531 117.44C63.0531 114.827 63.8931 112.84 65.5731 111.48C67.2798 110.12 69.4398 109.44 72.0531 109.44H74.6131V103.64H60.7731V98.4H95.8531V103.64ZM85.6131 103.64H80.4531V109.44H85.6131V103.64ZM74.6131 114.56H72.2131C71.2265 114.56 70.4265 114.813 69.8131 115.32C69.1998 115.827 68.8931 116.533 68.8931 117.44C68.8931 118.32 69.1465 119.013 69.6531 119.52C70.1865 120 70.8665 120.24 71.6931 120.24C72.6265 120.24 73.3465 119.933 73.8531 119.32C74.3598 118.68 74.6131 117.827 74.6131 116.76V114.56ZM137.441 103.64H133.521V128H127.241V116H112.361V119.92C112.361 120.827 112.574 121.573 113.001 122.16C113.454 122.72 114.107 123 114.961 123C115.761 123 116.374 122.733 116.801 122.2C117.254 121.667 117.481 120.987 117.481 120.16V119.64H123.521C123.547 119.88 123.561 120.173 123.561 120.52C123.561 122.92 122.801 124.827 121.281 126.24C119.787 127.653 117.721 128.36 115.081 128.36C113.187 128.36 111.561 127.987 110.201 127.24C108.867 126.467 107.854 125.427 107.161 124.12C106.494 122.787 106.161 121.28 106.161 119.6V111.52H109.121C111.174 111.52 112.627 111.067 113.481 110.16C114.361 109.227 114.801 107.933 114.801 106.28V103.64H102.961V98.4H137.441V103.64ZM127.241 103.64H121.081V106.28C121.081 108.013 120.761 109.547 120.121 110.88H127.241V103.64ZM134.006 91.84C134.006 92.8533 133.646 93.72 132.926 94.44C132.206 95.1333 131.339 95.48 130.326 95.48C129.312 95.48 128.459 95.1333 127.766 94.44C127.046 93.72 126.686 92.8533 126.686 91.84C126.686 90.8267 127.046 89.9733 127.766 89.28C128.459 88.56 129.312 88.2 130.326 88.2C131.339 88.2 132.206 88.56 132.926 89.28C133.646 89.9733 134.006 90.8267 134.006 91.84ZM170.566 103.64H166.646V128H160.366V116H145.486V119.92C145.486 120.827 145.699 121.573 146.126 122.16C146.579 122.72 147.232 123 148.086 123C148.886 123 149.499 122.733 149.926 122.2C150.379 121.667 150.606 120.987 150.606 120.16V119.64H156.646C156.672 119.88 156.686 120.173 156.686 120.52C156.686 122.92 155.926 124.827 154.406 126.24C152.912 127.653 150.846 128.36 148.206 128.36C146.312 128.36 144.686 127.987 143.326 127.24C141.992 126.467 140.979 125.427 140.286 124.12C139.619 122.787 139.286 121.28 139.286 119.6V111.52H142.246C144.299 111.52 145.752 111.067 146.606 110.16C147.486 109.227 147.926 107.933 147.926 106.28V103.64H136.086V98.4H170.566V103.64ZM160.366 103.64H154.206V106.28C154.206 108.013 153.886 109.547 153.246 110.88H160.366V103.64ZM173.131 128V103.64H169.211V98.4H183.331V103.64H179.411V128H173.131ZM191.384 116V120C191.384 120.907 191.584 121.64 191.984 122.2C192.384 122.733 192.997 123 193.824 123C194.571 123 195.157 122.733 195.584 122.2C196.011 121.667 196.224 120.987 196.224 120.16V119.04H202.264V119.96C202.264 122.52 201.531 124.56 200.064 126.08C198.597 127.6 196.557 128.36 193.944 128.36C192.077 128.36 190.477 127.987 189.144 127.24C187.837 126.467 186.851 125.427 186.184 124.12C185.517 122.813 185.184 121.333 185.184 119.68V110.96H189.224C191.277 110.96 192.731 110.52 193.584 109.64C194.464 108.76 194.904 107.467 194.904 105.76V103.64H181.984V98.4H204.584V103.64H201.184V105.76C201.184 108.933 200.437 111.44 198.944 113.28C197.477 115.093 195.024 116 191.584 116H191.384Z" fill="white"/>
</svg>
