<svg width="16" height="20" viewBox="0 0 16 20" fill="none" xmlns="http://www.w3.org/2000/svg">
<path d="M8 10.625C9.44975 10.625 10.625 9.44975 10.625 8C10.625 6.55025 9.44975 5.375 8 5.375C6.55025 5.375 5.375 6.55025 5.375 8C5.375 9.44975 6.55025 10.625 8 10.625Z" stroke="#A9A9A9" stroke-width="1.25" stroke-linecap="round" stroke-linejoin="round"/>
<path d="M8 1C6.14348 1 4.36301 1.7375 3.05025 3.05025C1.7375 4.36301 1 6.14348 1 8C1 9.6555 1.35175 10.7387 2.3125 11.9375L8 18.5L13.6875 11.9375C14.6483 10.7387 15 9.6555 15 8C15 6.14348 14.2625 4.36301 12.9497 3.05025C11.637 1.7375 9.85652 1 8 1V1Z" stroke="#A9A9A9" stroke-width="1.25" stroke-linecap="round" stroke-linejoin="round"/>
</svg>
