<svg width="21" height="23" viewBox="0 0 21 23" fill="none" xmlns="http://www.w3.org/2000/svg">
<path d="M20.0836 14.2914L17.9688 12.1766V9.375C17.9663 7.43894 17.2461 5.57254 15.9474 4.1367C14.6486 2.70087 12.8636 1.7976 10.9375 1.60156V0H9.375V1.60156C7.44889 1.7976 5.66388 2.70087 4.36513 4.1367C3.06639 5.57254 2.34617 7.43894 2.34375 9.375V12.1766L0.228906 14.2914C0.0823833 14.4379 4.4248e-05 14.6366 0 14.8438V17.1875C0 17.3947 0.08231 17.5934 0.228823 17.7399C0.375336 17.8864 0.57405 17.9688 0.78125 17.9688H6.25V18.5758C6.23301 19.5669 6.58235 20.5294 7.23108 21.2789C7.87981 22.0284 8.78231 22.5122 9.76562 22.6375C10.3087 22.6914 10.8571 22.6309 11.3755 22.4602C11.8938 22.2894 12.3707 22.012 12.7754 21.6458C13.1801 21.2796 13.5037 20.8328 13.7254 20.3341C13.9471 19.8354 14.0619 19.2958 14.0625 18.75V17.9688H19.5312C19.7385 17.9688 19.9372 17.8864 20.0837 17.7399C20.2302 17.5934 20.3125 17.3947 20.3125 17.1875V14.8438C20.3125 14.6366 20.2301 14.4379 20.0836 14.2914ZM12.5 18.75C12.5 19.3716 12.2531 19.9677 11.8135 20.4073C11.374 20.8468 10.7779 21.0938 10.1562 21.0938C9.53465 21.0938 8.93851 20.8468 8.49897 20.4073C8.05943 19.9677 7.8125 19.3716 7.8125 18.75V17.9688H12.5V18.75ZM18.75 16.4062H1.5625V15.1672L3.67734 13.0523C3.82387 12.9059 3.90621 12.7072 3.90625 12.5V9.375C3.90625 7.7174 4.56473 6.12769 5.73683 4.95558C6.90893 3.78348 8.49865 3.125 10.1562 3.125C11.8139 3.125 13.4036 3.78348 14.5757 4.95558C15.7478 6.12769 16.4062 7.7174 16.4062 9.375V12.5C16.4063 12.7072 16.4886 12.9059 16.6352 13.0523L18.75 15.1672V16.4062Z" fill="white"/>
</svg>
