<svg width="16" height="15" viewBox="0 0 16 15" fill="none" xmlns="http://www.w3.org/2000/svg">
<path d="M14.3 0H1.7C0.7624 0 0 0.703529 0 1.56863V12.549C0 13.4141 0.7624 14.1176 1.7 14.1176H14.3C15.2376 14.1176 16 13.4141 16 12.549V1.56863C16 0.703529 15.2376 0 14.3 0ZM14.3 12.549H1.7C1.6544 12.549 1.6232 12.5365 1.6096 12.5365C1.604 12.5365 1.6008 12.538 1.6 12.5427L1.5904 1.60471C1.596 1.59686 1.632 1.56863 1.7 1.56863H14.3C14.3632 1.56941 14.3976 1.59059 14.4 1.5749L14.4096 12.5129C14.404 12.5208 14.368 12.549 14.3 12.549Z" fill="#3074BD"/>
<path d="M2.82373 2.82373H7.52961V7.90608H2.82373V2.82373ZM8.31393 9.6002H2.82373V11.2943H12.2355V9.6002H9.09824H8.31393ZM9.09824 6.21197H12.2355V7.90608H9.09824V6.21197ZM9.09824 2.82373H12.2355V4.51785H9.09824V2.82373Z" fill="#3074BD"/>
</svg>
