<svg width="10" height="15" viewBox="0 0 10 15" fill="none" xmlns="http://www.w3.org/2000/svg">
<path d="M7.5 0.9375C7.74864 0.9375 7.9871 1.03627 8.16291 1.21209C8.33873 1.3879 8.4375 1.62636 8.4375 1.875V13.125C8.4375 13.3736 8.33873 13.6121 8.16291 13.7879C7.9871 13.9637 7.74864 14.0625 7.5 14.0625H1.875C1.62636 14.0625 1.3879 13.9637 1.21209 13.7879C1.03627 13.6121 0.9375 13.3736 0.9375 13.125V1.875C0.9375 1.62636 1.03627 1.3879 1.21209 1.21209C1.3879 1.03627 1.62636 0.9375 1.875 0.9375H7.5ZM1.875 0C1.37772 0 0.900805 0.197544 0.549175 0.549175C0.197544 0.900805 0 1.37772 0 1.875V13.125C0 13.6223 0.197544 14.0992 0.549175 14.4508C0.900805 14.8025 1.37772 15 1.875 15H7.5C7.99728 15 8.47419 14.8025 8.82582 14.4508C9.17746 14.0992 9.375 13.6223 9.375 13.125V1.875C9.375 1.37772 9.17746 0.900805 8.82582 0.549175C8.47419 0.197544 7.99728 0 7.5 0L1.875 0Z" fill="#888888"/>
<path d="M4.6875 13.125C4.93614 13.125 5.1746 13.0262 5.35041 12.8504C5.52623 12.6746 5.625 12.4361 5.625 12.1875C5.625 11.9389 5.52623 11.7004 5.35041 11.5246C5.1746 11.3488 4.93614 11.25 4.6875 11.25C4.43886 11.25 4.2004 11.3488 4.02459 11.5246C3.84877 11.7004 3.75 11.9389 3.75 12.1875C3.75 12.4361 3.84877 12.6746 4.02459 12.8504C4.2004 13.0262 4.43886 13.125 4.6875 13.125Z" fill="#888888"/>
</svg>
