<svg width="20" height="20" viewBox="0 0 20 20" fill="none" xmlns="http://www.w3.org/2000/svg">
<path fill-rule="evenodd" clip-rule="evenodd" d="M13.0908 7.09086C13.0908 8.03118 12.7173 8.93298 12.0524 9.59788C11.3875 10.2628 10.4857 10.6363 9.54539 10.6363C8.60508 10.6363 7.70328 10.2628 7.03838 9.59788C6.37348 8.93298 5.99994 8.03118 5.99994 7.09086C5.99994 6.15055 6.37348 5.24875 7.03838 4.58385C7.70328 3.91895 8.60508 3.54541 9.54539 3.54541C10.4857 3.54541 11.3875 3.91895 12.0524 4.58385C12.7173 5.24875 13.0908 6.15055 13.0908 7.09086ZM11.3181 7.09086C11.3181 7.56102 11.1314 8.01192 10.7989 8.34437C10.4664 8.67682 10.0156 8.86359 9.54539 8.86359C9.07524 8.86359 8.62434 8.67682 8.29189 8.34437C7.95944 8.01192 7.77267 7.56102 7.77267 7.09086C7.77267 6.62071 7.95944 6.16981 8.29189 5.83736C8.62434 5.50491 9.07524 5.31814 9.54539 5.31814C10.0156 5.31814 10.4664 5.50491 10.7989 5.83736C11.1314 6.16981 11.3181 6.62071 11.3181 7.09086Z" fill="#3074BD"/>
<path fill-rule="evenodd" clip-rule="evenodd" d="M9.75 0C4.36534 0 0 4.36534 0 9.75C0 15.1347 4.36534 19.5 9.75 19.5C15.1347 19.5 19.5 15.1347 19.5 9.75C19.5 4.36534 15.1347 0 9.75 0ZM1.77273 9.75C1.77273 11.6025 2.4047 13.3079 3.46391 14.6622C4.20777 13.6854 5.16741 12.8937 6.26786 12.3491C7.36831 11.8045 8.57977 11.5217 9.80761 11.5227C11.0196 11.5216 12.2158 11.7971 13.3051 12.3282C14.3945 12.8594 15.3482 13.6322 16.0937 14.5878C16.8617 13.5805 17.3788 12.4049 17.6022 11.1581C17.8256 9.91129 17.7489 8.62922 17.3785 7.41796C17.008 6.2067 16.3545 5.10107 15.4719 4.19253C14.5893 3.284 13.5031 2.59869 12.3031 2.19331C11.103 1.78794 9.82374 1.67414 8.57101 1.86134C7.31828 2.04854 6.12813 2.53136 5.09905 3.26984C4.06996 4.00833 3.23151 4.98125 2.65309 6.10811C2.07466 7.23496 1.77289 8.48336 1.77273 9.75ZM9.75 17.7273C7.91873 17.73 6.14274 17.1 4.72255 15.9439C5.29419 15.1256 6.05505 14.4574 6.9404 13.9963C7.82575 13.5352 8.80938 13.2947 9.80761 13.2955C10.7934 13.2947 11.7651 13.5291 12.6421 13.9792C13.5191 14.4294 14.2761 15.0822 14.8501 15.8836C13.4189 17.0773 11.6137 17.7299 9.75 17.7273Z" fill="#3074BD"/>
<path fill-rule="evenodd" clip-rule="evenodd" d="M9.75 0C4.36534 0 0 4.36534 0 9.75C0 15.1347 4.36534 19.5 9.75 19.5C15.1347 19.5 19.5 15.1347 19.5 9.75C19.5 4.36534 15.1347 0 9.75 0ZM1.77273 9.75C1.77273 11.6025 2.4047 13.3079 3.46391 14.6622C4.20777 13.6854 5.16741 12.8937 6.26786 12.3491C7.36831 11.8045 8.57977 11.5217 9.80761 11.5227C11.0196 11.5216 12.2158 11.7971 13.3051 12.3282C14.3945 12.8594 15.3482 13.6322 16.0937 14.5878C16.8617 13.5805 17.3788 12.4049 17.6022 11.1581C17.8256 9.91129 17.7489 8.62922 17.3785 7.41796C17.008 6.2067 16.3545 5.10106 15.4719 4.19253C14.5893 3.284 13.5031 2.59869 12.3031 2.19331C11.103 1.78794 9.82374 1.67414 8.57101 1.86134C7.31828 2.04854 6.12813 2.53136 5.09905 3.26984C4.06996 4.00833 3.23151 4.98125 2.65309 6.10811C2.07466 7.23496 1.77289 8.48336 1.77273 9.75V9.75ZM9.75 17.7273C7.91873 17.73 6.14274 17.1 4.72255 15.9439C5.29419 15.1256 6.05505 14.4574 6.9404 13.9963C7.82575 13.5352 8.80938 13.2947 9.80761 13.2955C10.7934 13.2947 11.7651 13.5291 12.6421 13.9792C13.5191 14.4294 14.2761 15.0822 14.8501 15.8836C13.4189 17.0773 11.6137 17.7299 9.75 17.7273V17.7273Z" fill="#3074BD"/>
</svg>
