<svg width="25" height="25" viewBox="0 0 25 25" fill="none" xmlns="http://www.w3.org/2000/svg">
    <g clip-path="url(#clip0_707_164)">
        <path
            d="M4.74051e-07 12.5C-0.000535377 11.1237 0.453224 9.78572 1.29086 8.69369C2.12849 7.60166 3.30316 6.81665 4.63256 6.46048C5.96197 6.10431 7.37176 6.1969 8.64316 6.72389C9.91455 7.25087 10.9765 8.18278 11.6641 9.37499H21.875C21.9777 9.37481 22.0794 9.39486 22.1743 9.43401C22.2692 9.47315 22.3554 9.53062 22.4281 9.60312L24.7719 11.9469C24.8446 12.0194 24.9024 12.1057 24.9417 12.2006C24.9811 12.2955 25.0014 12.3972 25.0014 12.5C25.0014 12.6028 24.9811 12.7045 24.9417 12.7994C24.9024 12.8943 24.8446 12.9805 24.7719 13.0531L22.4281 15.3969C22.3556 15.4696 22.2693 15.5273 22.1744 15.5667C22.0795 15.6061 21.9778 15.6264 21.875 15.6264C21.7722 15.6264 21.6705 15.6061 21.5756 15.5667C21.4807 15.5273 21.3944 15.4696 21.3219 15.3969L20.3125 14.3859L19.3031 15.3969C19.2306 15.4696 19.1443 15.5273 19.0494 15.5667C18.9545 15.6061 18.8528 15.6264 18.75 15.6264C18.6472 15.6264 18.5455 15.6061 18.4506 15.5667C18.3557 15.5273 18.2694 15.4696 18.1969 15.3969L17.1875 14.3859L16.1781 15.3969C16.1056 15.4696 16.0193 15.5273 15.9244 15.5667C15.8295 15.6061 15.7278 15.6264 15.625 15.6264C15.5222 15.6264 15.4205 15.6061 15.3256 15.5667C15.2307 15.5273 15.1444 15.4696 15.0719 15.3969L14.0625 14.3859L13.0531 15.3969C12.9804 15.4694 12.8942 15.5268 12.7993 15.566C12.7044 15.6051 12.6027 15.6252 12.5 15.625H11.6641C10.9765 16.8172 9.91455 17.7491 8.64316 18.2761C7.37176 18.8031 5.96197 18.8957 4.63256 18.5395C3.30316 18.1833 2.12849 17.3983 1.29086 16.3063C0.453224 15.2143 -0.000535377 13.8763 4.74051e-07 12.5ZM6.25 7.81249C5.41116 7.81281 4.58777 8.03822 3.86573 8.46521C3.1437 8.89221 2.54947 9.50513 2.14504 10.24C1.74062 10.975 1.54081 11.8049 1.56647 12.6434C1.59213 13.4818 1.84231 14.298 2.29092 15.0068C2.73953 15.7156 3.37013 16.2911 4.11692 16.6731C4.86372 17.0552 5.69935 17.2298 6.53664 17.1788C7.37393 17.1279 8.18221 16.8531 8.87714 16.3833C9.57207 15.9135 10.1282 15.2658 10.4875 14.5078C10.5509 14.3746 10.6508 14.2621 10.7755 14.1833C10.9002 14.1045 11.0447 14.0626 11.1922 14.0625H12.1766L13.5094 12.7281C13.5819 12.6554 13.6682 12.5976 13.7631 12.5583C13.858 12.5189 13.9597 12.4986 14.0625 12.4986C14.1653 12.4986 14.267 12.5189 14.3619 12.5583C14.4568 12.5976 14.5431 12.6554 14.6156 12.7281L15.625 13.7391L16.6344 12.7281C16.7069 12.6554 16.7932 12.5976 16.8881 12.5583C16.983 12.5189 17.0847 12.4986 17.1875 12.4986C17.2903 12.4986 17.392 12.5189 17.4869 12.5583C17.5818 12.5976 17.6681 12.6554 17.7406 12.7281L18.75 13.7391L19.7594 12.7281C19.8319 12.6554 19.9182 12.5976 20.0131 12.5583C20.108 12.5189 20.2097 12.4986 20.3125 12.4986C20.4153 12.4986 20.517 12.5189 20.6119 12.5583C20.7068 12.5976 20.7931 12.6554 20.8656 12.7281L21.875 13.7391L23.1141 12.5L21.5516 10.9375H11.1922C11.0447 10.9374 10.9002 10.8955 10.7755 10.8167C10.6508 10.7379 10.5509 10.6254 10.4875 10.4922C10.1073 9.69017 9.50727 9.01256 8.75712 8.53819C8.00697 8.06381 7.13756 7.81216 6.25 7.81249Z"
            fill="#888888" />
        <path
            d="M6.25 12.5C6.25 12.9144 6.08538 13.3118 5.79235 13.6049C5.49933 13.8979 5.1019 14.0625 4.6875 14.0625C4.2731 14.0625 3.87567 13.8979 3.58265 13.6049C3.28962 13.3118 3.125 12.9144 3.125 12.5C3.125 12.0856 3.28962 11.6882 3.58265 11.3951C3.87567 11.1021 4.2731 10.9375 4.6875 10.9375C5.1019 10.9375 5.49933 11.1021 5.79235 11.3951C6.08538 11.6882 6.25 12.0856 6.25 12.5Z"
            fill="#888888" />
    </g>
    <defs>
        <clipPath id="clip0_707_164">
            <rect width="25" height="25" fill="white" />
        </clipPath>
    </defs>
</svg>
