<svg width="10" height="10" viewBox="0 0 10 10" fill="none" xmlns="http://www.w3.org/2000/svg">
<path d="M9.67679 3.36265L6.67898 2.92697L5.33889 0.21017C5.30228 0.135785 5.24207 0.0755694 5.16768 0.0389676C4.98113 -0.0531273 4.75444 0.0236184 4.66116 0.21017L3.32106 2.92697L0.323258 3.36265C0.240609 3.37445 0.165044 3.41342 0.107189 3.47245C0.0372466 3.54434 -0.00129512 3.64106 3.3232e-05 3.74135C0.00136159 3.84164 0.0424513 3.9373 0.114274 4.00731L2.28323 6.12195L1.7708 9.10795C1.75878 9.17741 1.76647 9.24885 1.79299 9.31416C1.81951 9.37948 1.86379 9.43606 1.92083 9.47748C1.97787 9.51891 2.04537 9.54352 2.11568 9.54854C2.186 9.55355 2.25631 9.53876 2.31865 9.50585L5.00002 8.09609L7.6814 9.50585C7.7546 9.54481 7.83962 9.5578 7.92108 9.54363C8.12653 9.50821 8.26467 9.31339 8.22925 9.10795L7.71682 6.12195L9.88577 4.00731C9.94481 3.94946 9.98377 3.87389 9.99558 3.79124C10.0275 3.58462 9.88341 3.39335 9.67679 3.36265ZM6.80414 5.82441L7.23037 8.30743L5.00002 7.13618L2.76968 8.30861L3.19591 5.82559L1.39179 4.06635L3.88544 3.70387L5.00002 1.44519L6.11461 3.70387L8.60825 4.06635L6.80414 5.82441Z" fill="#888888"/>
</svg>
