<svg width="32" height="32" viewBox="0 0 32 32" fill="none" xmlns="http://www.w3.org/2000/svg">
<path fill-rule="evenodd" clip-rule="evenodd" d="M0 0H27.556V4.44409H25.7782V1.77764H1.77781V22.2204H20.7888V23.9981H0V0ZM26.6671 11.5546C27.3744 11.5546 28.0526 11.2737 28.5528 10.7736C29.0529 10.2736 29.3338 9.59536 29.3338 8.88818C29.3338 8.18099 29.0529 7.50277 28.5528 7.00271C28.0526 6.50265 27.3744 6.22172 26.6671 6.22172C25.9598 6.22172 25.2816 6.50265 24.7815 7.00271C24.2814 7.50277 24.0004 8.18099 24.0004 8.88818C24.0004 9.59536 24.2814 10.2736 24.7815 10.7736C25.2816 11.2737 25.9598 11.5546 26.6671 11.5546ZM28.4725 13.3412C29.6272 13.3412 30.5409 13.8602 31.1392 14.6619C31.6983 15.413 31.9347 16.3418 31.9881 17.1995C32.0403 18.0793 31.9205 18.9609 31.6352 19.7949C31.3685 20.5681 30.9178 21.3681 30.2227 21.9165V30.6642C30.2234 30.9992 30.0979 31.3221 29.8712 31.5688C29.6446 31.8155 29.3334 31.9678 28.9995 31.9954C28.6656 32.0231 28.3336 31.9241 28.0694 31.7181C27.8053 31.5121 27.6283 31.2143 27.5738 30.8837L26.4271 23.9981H26.1622L24.8662 30.9095C24.8046 31.2357 24.6236 31.5272 24.3585 31.727C24.0934 31.9268 23.7633 32.0206 23.4327 31.9899C23.1022 31.9592 22.7949 31.8063 22.5711 31.5612C22.3473 31.316 22.223 30.9962 22.2226 30.6642V17.9834C22.0448 18.2542 21.8694 18.5265 21.6964 18.8003L21.627 18.9096L21.6092 18.938L21.6048 18.946C21.485 19.1384 21.3181 19.297 21.12 19.407C20.9219 19.5169 20.6989 19.5745 20.4723 19.5744H16.0278C15.6742 19.5744 15.335 19.434 15.085 19.1839C14.8349 18.9339 14.6945 18.5948 14.6945 18.2412C14.6945 17.8876 14.8349 17.5485 15.085 17.2985C15.335 17.0484 15.6742 16.908 16.0278 16.908H19.7408C19.9568 16.5738 20.2412 16.14 20.5399 15.7045C20.851 15.2503 21.1941 14.7695 21.4999 14.3926C21.6484 14.2086 21.8146 14.0167 21.9817 13.8593C22.0635 13.782 22.1773 13.6816 22.3159 13.5927C22.5606 13.4321 22.8463 13.3451 23.139 13.342L28.4725 13.3412Z" fill="#3074BD"/>
</svg>
