<svg width="25" height="25" viewBox="0 0 25 25" fill="none" xmlns="http://www.w3.org/2000/svg">
    <path
        d="M20.0977 16.7801L16.5419 14.4688L17.8824 12.0111C18.1949 11.4372 18.3589 10.7942 18.3594 10.1407V6.25C18.3594 4.7996 17.7832 3.4086 16.7576 2.38301C15.732 1.35742 14.341 0.78125 12.8906 0.78125C11.4402 0.78125 10.0492 1.35742 9.02364 2.38301C7.99805 3.4086 7.42188 4.7996 7.42188 6.25V10.1407C7.42237 10.7942 7.58633 11.4372 7.89884 12.0112L9.23941 14.4688L5.6836 16.7801C5.13712 17.1338 4.68808 17.619 4.37758 18.1912C4.06708 18.7634 3.90503 19.4043 3.90626 20.0553V24.2188H21.875V20.0553C21.8762 19.4043 21.7142 18.7634 21.4037 18.1912C21.0932 17.619 20.6441 17.1339 20.0977 16.7801ZM20.3125 22.6562H5.46876V20.0553C5.46803 19.6647 5.56526 19.2801 5.75157 18.9368C5.93788 18.5935 6.20731 18.3024 6.53521 18.0901L11.3038 14.9906L9.27056 11.263C9.08306 10.9186 8.98468 10.5328 8.98438 10.1407V6.25C8.98438 5.214 9.39593 4.22043 10.1285 3.48786C10.8611 2.7553 11.8546 2.34375 12.8906 2.34375C13.9266 2.34375 14.9202 2.7553 15.6528 3.48786C16.3853 4.22043 16.7969 5.214 16.7969 6.25V10.1407C16.7966 10.5328 16.6982 10.9186 16.5107 11.263L14.4775 14.9906L19.2462 18.0901C19.5741 18.3024 19.8435 18.5935 20.0298 18.9368C20.216 19.2801 20.3133 19.6647 20.3125 20.0553V22.6562Z"
        fill="#888888" />
</svg>
