<svg width="12" height="12" viewBox="0 0 12 12" fill="none" xmlns="http://www.w3.org/2000/svg">
<path d="M5.99929 11.6074C9.16968 11.6074 11.7398 9.10868 11.7398 6.02635C11.7398 2.94403 9.16968 0.445312 5.99929 0.445312C2.8289 0.445312 0.258789 2.94403 0.258789 6.02635C0.258789 9.10868 2.8289 11.6074 5.99929 11.6074Z" stroke="#888888" stroke-width="0.5" stroke-linecap="round" stroke-linejoin="round"/>
<path d="M0.258789 6.02611H11.7398M1.04179 3.21298H10.9575M1.04254 8.8385H10.9575M6.00004 11.6071V0.444336" stroke="#888888" stroke-width="0.5" stroke-linecap="round" stroke-linejoin="round"/>
<path d="M6.00066 11.6074C7.59828 11.6074 8.89341 9.10868 8.89341 6.02635C8.89341 2.94403 7.59828 0.445312 6.00066 0.445312C4.40304 0.445312 3.10791 2.94403 3.10791 6.02635C3.10791 9.10868 4.40304 11.6074 6.00066 11.6074Z" stroke="#888888" stroke-width="0.5" stroke-linecap="round" stroke-linejoin="round"/>
</svg>
